<svg width="20" height="20" viewBox="0 0 20 20" fill="none" xmlns="http://www.w3.org/2000/svg">
  <path d="M15.8333 13.3333V15.8333C15.8333 16.2754 15.6577 16.6993 15.3451 17.0118C15.0326 17.3244 14.6087 17.5 14.1667 17.5C7.63667 17.5 2.5 12.3633 2.5 5.83333C2.5 5.39131 2.67559 4.96738 2.98816 4.65482C3.30072 4.34226 3.72464 4.16667 4.16667 4.16667H6.66667C7.10869 4.16667 7.53262 4.34226 7.84518 4.65482C8.15774 4.96738 8.33333 5.39131 8.33333 5.83333C8.33333 6.71667 8.51667 7.575 8.85833 8.35833L7.5 9.71667C7.5 10.6 7.68333 11.4583 8.025 12.2417L9.38333 10.8833C10.1667 11.225 11.025 11.4083 11.9083 11.4083L13.2667 10.05C14.05 10.3917 14.9083 10.575 15.7917 10.575C16.2337 10.575 16.6576 10.7506 16.9702 11.0632C17.2827 11.3757 17.4583 11.7997 17.4583 12.2417V14.7417" stroke="#0BB586" stroke-width="1.5" stroke-linecap="round" stroke-linejoin="round"/>
</svg>

